<?xml version='1.0' encoding='utf-8'?>
<mxfile host="65bd71144e">
    <diagram id="prtHgNgQTEPvFCAcTncT" name="xiaozhi-server-architecture">
        <mxGraphModel dx="2226" dy="552" grid="1" gridSize="10" guides="1" tooltips="1" connect="1" arrows="1" fold="1" page="1" pageScale="1" pageWidth="827" pageHeight="1169" math="0" shadow="0">
            <root>
                <mxCell id="0" />
                <mxCell id="1" parent="0" />
                <mxCell id="2" value="小智ESP32服务端&#10;main/xiaozhi-server" style="rounded=1;whiteSpace=wrap;html=1;fontSize=16;fontStyle=1;fillColor=#dae8fc;strokeColor=#6c8ebf;" parent="1" vertex="1">
                    <mxGeometry x="320" y="40" width="200" height="60" as="geometry" />
                </mxCell>
                <mxCell id="3" value="应用入口&#10;app.py" style="rounded=1;whiteSpace=wrap;html=1;fontSize=14;fillColor=#fff2cc;strokeColor=#d6b656;" parent="1" vertex="1">
                    <mxGeometry x="360" y="130" width="120" height="40" as="geometry" />
                </mxCell>
                <mxCell id="4" value="" style="endArrow=classic;html=1;exitX=0.5;exitY=1;exitDx=0;exitDy=0;entryX=0.5;entryY=0;entryDx=0;entryDy=0;" parent="1" source="2" target="3" edge="1">
                    <mxGeometry width="50" height="50" relative="1" as="geometry" />
                </mxCell>
                <mxCell id="5" value="核心服务层" style="swimlane;fontStyle=1;childLayout=stackLayout;horizontal=1;startSize=30;horizontalStack=0;resizeParent=1;resizeParentMax=0;resizeLast=0;collapsible=1;marginBottom=0;fillColor=#d5e8d4;strokeColor=#82b366;" parent="1" vertex="1">
                    <mxGeometry x="200" y="200" width="440" height="170" as="geometry" />
                </mxCell>
                <mxCell id="6" value="WebSocket 接入&#10;WebSocketServer (端口 8000)" style="rounded=1;whiteSpace=wrap;html=1;fillColor=#e1d5e7;strokeColor=#9673a6;" parent="5" vertex="1">
                    <mxGeometry y="30" width="110" height="70" as="geometry" />
                </mxCell>
                <mxCell id="7" value="HTTP 接入&#10;SimpleHttpServer (端口 8003)" style="rounded=1;whiteSpace=wrap;html=1;fillColor=#e1d5e7;strokeColor=#9673a6;" parent="5" vertex="1">
                    <mxGeometry x="110" y="30" width="110" height="70" as="geometry" />
                </mxCell>
                <mxCell id="8" value="连接调度&#10;ConnectionHandler" style="rounded=1;whiteSpace=wrap;html=1;fillColor=#e1d5e7;strokeColor=#9673a6;" parent="5" vertex="1">
                    <mxGeometry x="220" y="30" width="110" height="70" as="geometry" />
                </mxCell>
                <mxCell id="9" value="认证与设备绑定&#10;AuthMiddleware" style="rounded=1;whiteSpace=wrap;html=1;fillColor=#e1d5e7;strokeColor=#9673a6;" parent="5" vertex="1">
                    <mxGeometry x="330" y="30" width="110" height="70" as="geometry" />
                </mxCell>
                <mxCell id="10" value="配置与基础能力" style="swimlane;fontStyle=1;childLayout=stackLayout;horizontal=1;startSize=30;horizontalStack=0;resizeParent=1;resizeParentMax=0;resizeLast=0;collapsible=1;marginBottom=0;fillColor=#ffe6cc;strokeColor=#d79b00;" parent="1" vertex="1">
                    <mxGeometry x="40" y="200" width="140" height="130" as="geometry" />
                </mxCell>
                <mxCell id="11" value="配置加载&#10;config/config_loader.py" style="rounded=1;whiteSpace=wrap;html=1;fillColor=#f8cecc;strokeColor=#b85450;" parent="10" vertex="1">
                    <mxGeometry y="30" width="140" height="50" as="geometry" />
                </mxCell>
                <mxCell id="12" value="日志与追踪&#10;config/logger.py" style="rounded=1;whiteSpace=wrap;html=1;fillColor=#f8cecc;strokeColor=#b85450;" parent="10" vertex="1">
                    <mxGeometry y="80" width="140" height="50" as="geometry" />
                </mxCell>
                <mxCell id="13" value="会话与消息处理" style="swimlane;fontStyle=1;childLayout=stackLayout;horizontal=1;startSize=30;horizontalStack=0;resizeParent=1;resizeParentMax=0;resizeLast=0;collapsible=1;marginBottom=0;fillColor=#d5e8d4;strokeColor=#82b366;" parent="1" vertex="1">
                    <mxGeometry x="200" y="390" width="440" height="150" as="geometry" />
                </mxCell>
                <mxCell id="14" value="音频接收处理&#10;core/handle/receiveAudioHandle.py" style="rounded=1;whiteSpace=wrap;html=1;fillColor=#e1d5e7;strokeColor=#9673a6;" parent="13" vertex="1">
                    <mxGeometry y="30" width="110" height="60" as="geometry" />
                </mxCell>
                <mxCell id="15" value="音频合成输出&#10;core/handle/sendAudioHandle.py" style="rounded=1;whiteSpace=wrap;html=1;fillColor=#e1d5e7;strokeColor=#9673a6;" parent="13" vertex="1">
                    <mxGeometry x="110" y="30" width="110" height="60" as="geometry" />
                </mxCell>
                <mxCell id="16" value="文本消息路由&#10;core/handle/textMessageHandler.py" style="rounded=1;whiteSpace=wrap;html=1;fillColor=#e1d5e7;strokeColor=#9673a6;" parent="13" vertex="1">
                    <mxGeometry x="220" y="30" width="110" height="60" as="geometry" />
                </mxCell>
                <mxCell id="17" value="意图解析&#10;intentHandler.py" style="rounded=1;whiteSpace=wrap;html=1;fillColor=#e1d5e7;strokeColor=#9673a6;" parent="13" vertex="1">
                    <mxGeometry x="330" y="30" width="110" height="60" as="geometry" />
                </mxCell>
                <mxCell id="18" value="AI 能力层&#10;initialize_modules 动态加载" style="swimlane;fontStyle=1;childLayout=stackLayout;horizontal=1;startSize=30;horizontalStack=0;resizeParent=1;resizeParentMax=0;resizeLast=0;collapsible=1;marginBottom=0;fillColor=#f8cecc;strokeColor=#b85450;" parent="1" vertex="1">
                    <mxGeometry x="40" y="560" width="200" height="240" as="geometry" />
                </mxCell>
                <mxCell id="19" value="ASR 语音识别&#10;core/providers/asr/*" style="rounded=1;whiteSpace=wrap;html=1;fillColor=#dae8fc;strokeColor=#6c8ebf;" parent="18" vertex="1">
                    <mxGeometry y="30" width="200" height="50" as="geometry" />
                </mxCell>
                <mxCell id="20" value="LLM 对话模型&#10;core/providers/llm/*" style="rounded=1;whiteSpace=wrap;html=1;fillColor=#dae8fc;strokeColor=#6c8ebf;" parent="18" vertex="1">
                    <mxGeometry y="80" width="200" height="50" as="geometry" />
                </mxCell>
                <mxCell id="21" value="TTS 语音合成&#10;core/providers/tts/*" style="rounded=1;whiteSpace=wrap;html=1;fillColor=#dae8fc;strokeColor=#6c8ebf;" parent="18" vertex="1">
                    <mxGeometry y="130" width="200" height="50" as="geometry" />
                </mxCell>
                <mxCell id="22" value="VAD 声学活动检测&#10;core/providers/vad/*" style="rounded=1;whiteSpace=wrap;html=1;fillColor=#dae8fc;strokeColor=#6c8ebf;" parent="18" vertex="1">
                    <mxGeometry y="180" width="200" height="50" as="geometry" />
                </mxCell>
                <mxCell id="23" value="外部生态" style="swimlane;fontStyle=1;childLayout=stackLayout;horizontal=1;startSize=30;horizontalStack=0;resizeParent=1;resizeParentMax=0;resizeLast=0;collapsible=1;marginBottom=0;fillColor=#f8cecc;strokeColor=#b85450;" parent="1" vertex="1">
                    <mxGeometry x="260" y="560" width="180" height="240" as="geometry" />
                </mxCell>
                <mxCell id="24" value="IoT 设备接入&#10;设备控制/数据订阅" style="rounded=1;whiteSpace=wrap;html=1;fillColor=#dae8fc;strokeColor=#6c8ebf;" parent="23" vertex="1">
                    <mxGeometry y="30" width="180" height="45" as="geometry" />
                </mxCell>
                <mxCell id="25" value="MCP 协议桥接&#10;Model Context Protocol" style="rounded=1;whiteSpace=wrap;html=1;fillColor=#dae8fc;strokeColor=#6c8ebf;" parent="23" vertex="1">
                    <mxGeometry y="75" width="180" height="45" as="geometry" />
                </mxCell>
                <mxCell id="26" value="管理控制台&#10;manager-console" style="rounded=1;whiteSpace=wrap;html=1;fillColor=#dae8fc;strokeColor=#6c8ebf;" parent="23" vertex="1">
                    <mxGeometry y="120" width="180" height="45" as="geometry" />
                </mxCell>
                <mxCell id="27" value="插件能力扩展&#10;plugins_func/*" style="rounded=1;whiteSpace=wrap;html=1;fillColor=#dae8fc;strokeColor=#6c8ebf;" parent="23" vertex="1">
                    <mxGeometry y="165" width="180" height="45" as="geometry" />
                </mxCell>
                <mxCell id="28" value="支撑服务" style="swimlane;fontStyle=1;childLayout=stackLayout;horizontal=1;startSize=30;horizontalStack=0;resizeParent=1;resizeParentMax=0;resizeLast=0;collapsible=1;marginBottom=0;fillColor=#f8cecc;strokeColor=#b85450;" parent="1" vertex="1">
                    <mxGeometry x="460" y="560" width="180" height="190" as="geometry" />
                </mxCell>
                <mxCell id="29" value="配置中心&#10;ManageApiClient" style="rounded=1;whiteSpace=wrap;html=1;fillColor=#dae8fc;strokeColor=#6c8ebf;" parent="28" vertex="1">
                    <mxGeometry y="30" width="180" height="45" as="geometry" />
                </mxCell>
                <mxCell id="30" value="视觉解析&#10;VisionHandler" style="rounded=1;whiteSpace=wrap;html=1;fillColor=#dae8fc;strokeColor=#6c8ebf;" parent="28" vertex="1">
                    <mxGeometry y="75" width="180" height="45" as="geometry" />
                </mxCell>
                <mxCell id="31" value="运行监控与上报&#10;reportHandle 等" style="rounded=1;whiteSpace=wrap;html=1;fillColor=#dae8fc;strokeColor=#6c8ebf;" parent="28" vertex="1">
                    <mxGeometry y="120" width="180" height="45" as="geometry" />
                </mxCell>
                <mxCell id="32" value="终端形态" style="swimlane;fontStyle=1;childLayout=stackLayout;horizontal=1;startSize=30;horizontalStack=0;resizeParent=1;resizeParentMax=0;resizeLast=0;collapsible=1;marginBottom=0;fillColor=#fff2cc;strokeColor=#d6b656;" parent="1" vertex="1">
                    <mxGeometry x="260" y="820" width="300" height="100" as="geometry" />
                </mxCell>
                <mxCell id="33" value="ESP32 语音终端" style="rounded=1;whiteSpace=wrap;html=1;fillColor=#f5f5f5;strokeColor=#666666;" parent="32" vertex="1">
                    <mxGeometry y="30" width="100" height="40" as="geometry" />
                </mxCell>
                <mxCell id="34" value="第三方 IoT 设备" style="rounded=1;whiteSpace=wrap;html=1;fillColor=#f5f5f5;strokeColor=#666666;" parent="32" vertex="1">
                    <mxGeometry x="100" y="30" width="100" height="40" as="geometry" />
                </mxCell>
                <mxCell id="35" value="Web / App 客户端" style="rounded=1;whiteSpace=wrap;html=1;fillColor=#f5f5f5;strokeColor=#666666;" parent="32" vertex="1">
                    <mxGeometry x="200" y="30" width="100" height="40" as="geometry" />
                </mxCell>
                <mxCell id="36" value="" style="endArrow=classic;html=1;exitX=0.5;exitY=1;exitDx=0;exitDy=0;entryX=0.5;entryY=0;entryDx=0;entryDy=0;" parent="1" source="3" target="5" edge="1">
                    <mxGeometry width="50" height="50" relative="1" as="geometry" />
                </mxCell>
                <mxCell id="37" value="" style="endArrow=classic;html=1;exitX=0.5;exitY=1;exitDx=0;exitDy=0;entryX=0.5;entryY=0;entryDx=0;entryDy=0;" parent="1" source="3" target="10" edge="1">
                    <mxGeometry width="50" height="50" relative="1" as="geometry" />
                </mxCell>
                <mxCell id="38" value="" style="endArrow=classic;html=1;exitX=0.5;exitY=1;exitDx=0;exitDy=0;entryX=0.5;entryY=0;entryDx=0;entryDy=0;" parent="1" source="5" target="13" edge="1">
                    <mxGeometry width="50" height="50" relative="1" as="geometry" />
                </mxCell>
                <mxCell id="39" value="" style="endArrow=classic;html=1;exitX=0.5;exitY=1;exitDx=0;exitDy=0;entryX=0.5;entryY=0;entryDx=0;entryDy=0;" parent="1" source="13" target="18" edge="1">
                    <mxGeometry width="50" height="50" relative="1" as="geometry" />
                </mxCell>
                <mxCell id="40" value="" style="endArrow=classic;html=1;exitX=0.5;exitY=1;exitDx=0;exitDy=0;entryX=0.5;entryY=0;entryDx=0;entryDy=0;" parent="1" source="13" target="23" edge="1">
                    <mxGeometry width="50" height="50" relative="1" as="geometry" />
                </mxCell>
                <mxCell id="41" value="" style="endArrow=classic;html=1;exitX=0.5;exitY=1;exitDx=0;exitDy=0;entryX=0.5;entryY=0;entryDx=0;entryDy=0;" parent="1" source="13" target="28" edge="1">
                    <mxGeometry width="50" height="50" relative="1" as="geometry" />
                </mxCell>
                <mxCell id="42" value="" style="endArrow=classic;html=1;exitX=0.5;exitY=1;exitDx=0;exitDy=0;entryX=0.5;entryY=0;entryDx=0;entryDy=0;" parent="1" source="28" target="32" edge="1">
                    <mxGeometry width="50" height="50" relative="1" as="geometry" />
                </mxCell>
                <mxCell id="43" value="ASR 提供方" style="swimlane;fontStyle=1;childLayout=stackLayout;horizontal=1;startSize=30;horizontalStack=0;resizeParent=1;resizeParentMax=0;resizeLast=0;collapsible=1;marginBottom=0;fillColor=#e1d5e7;strokeColor=#9673a6;" parent="1" vertex="1">
                    <mxGeometry x="-200" y="440" width="160" height="180" as="geometry" />
                </mxCell>
                <mxCell id="44" value="火山引擎 ASR" style="rounded=1;whiteSpace=wrap;html=1;fillColor=#f8cecc;strokeColor=#b85450;" parent="43" vertex="1">
                    <mxGeometry y="30" width="160" height="25" as="geometry" />
                </mxCell>
                <mxCell id="45" value="百度 ASR" style="rounded=1;whiteSpace=wrap;html=1;fillColor=#f8cecc;strokeColor=#b85450;" parent="43" vertex="1">
                    <mxGeometry y="55" width="160" height="25" as="geometry" />
                </mxCell>
                <mxCell id="46" value="腾讯 ASR" style="rounded=1;whiteSpace=wrap;html=1;fillColor=#f8cecc;strokeColor=#b85450;" parent="43" vertex="1">
                    <mxGeometry y="80" width="160" height="25" as="geometry" />
                </mxCell>
                <mxCell id="47" value="FunASR" style="rounded=1;whiteSpace=wrap;html=1;fillColor=#f8cecc;strokeColor=#b85450;" parent="43" vertex="1">
                    <mxGeometry y="105" width="160" height="25" as="geometry" />
                </mxCell>
                <mxCell id="48" value="OpenAI Whisper" style="rounded=1;whiteSpace=wrap;html=1;fillColor=#f8cecc;strokeColor=#b85450;" parent="43" vertex="1">
                    <mxGeometry y="130" width="160" height="25" as="geometry" />
                </mxCell>
                <mxCell id="49" value="更多…" style="rounded=1;whiteSpace=wrap;html=1;fillColor=#f8cecc;strokeColor=#b85450;" parent="43" vertex="1">
                    <mxGeometry y="155" width="160" height="25" as="geometry" />
                </mxCell>
                <mxCell id="50" value="" style="endArrow=classic;html=1;exitX=0;exitY=0.5;exitDx=0;exitDy=0;entryX=1;entryY=0.75;entryDx=0;entryDy=0;" parent="1" source="19" target="46" edge="1">
                    <mxGeometry width="50" height="50" relative="1" as="geometry">
                        <mxPoint x="-200" y="530" as="targetPoint" />
                    </mxGeometry>
                </mxCell>
                <mxCell id="51" value="LLM 提供方" style="swimlane;fontStyle=1;childLayout=stackLayout;horizontal=1;startSize=30;horizontalStack=0;resizeParent=1;resizeParentMax=0;resizeLast=0;collapsible=1;marginBottom=0;fillColor=#e1d5e7;strokeColor=#9673a6;" parent="1" vertex="1">
                    <mxGeometry x="-200" y="690" width="160" height="180" as="geometry" />
                </mxCell>
                <mxCell id="52" value="OpenAI GPT" style="rounded=1;whiteSpace=wrap;html=1;fillColor=#f8cecc;strokeColor=#b85450;" parent="51" vertex="1">
                    <mxGeometry y="30" width="160" height="25" as="geometry" />
                </mxCell>
                <mxCell id="53" value="阿里云 Qwen" style="rounded=1;whiteSpace=wrap;html=1;fillColor=#f8cecc;strokeColor=#b85450;" parent="51" vertex="1">
                    <mxGeometry y="55" width="160" height="25" as="geometry" />
                </mxCell>
                <mxCell id="54" value="DeepSeek" style="rounded=1;whiteSpace=wrap;html=1;fillColor=#f8cecc;strokeColor=#b85450;" parent="51" vertex="1">
                    <mxGeometry y="80" width="160" height="25" as="geometry" />
                </mxCell>
                <mxCell id="55" value="Gemini" style="rounded=1;whiteSpace=wrap;html=1;fillColor=#f8cecc;strokeColor=#b85450;" parent="51" vertex="1">
                    <mxGeometry y="105" width="160" height="25" as="geometry" />
                </mxCell>
                <mxCell id="56" value="Ollama / 本地模型" style="rounded=1;whiteSpace=wrap;html=1;fillColor=#f8cecc;strokeColor=#b85450;" parent="51" vertex="1">
                    <mxGeometry y="130" width="160" height="25" as="geometry" />
                </mxCell>
                <mxCell id="57" value="更多…" style="rounded=1;whiteSpace=wrap;html=1;fillColor=#f8cecc;strokeColor=#b85450;" parent="51" vertex="1">
                    <mxGeometry y="155" width="160" height="25" as="geometry" />
                </mxCell>
                <mxCell id="58" value="" style="endArrow=classic;html=1;exitX=0;exitY=0.5;exitDx=0;exitDy=0;entryX=1;entryY=0.25;entryDx=0;entryDy=0;" parent="1" source="20" target="51" edge="1">
                    <mxGeometry width="50" height="50" relative="1" as="geometry" />
                </mxCell>
                <mxCell id="59" value="TTS 提供方" style="swimlane;fontStyle=1;childLayout=stackLayout;horizontal=1;startSize=30;horizontalStack=0;resizeParent=1;resizeParentMax=0;resizeLast=0;collapsible=1;marginBottom=0;fillColor=#e1d5e7;strokeColor=#9673a6;" parent="1" vertex="1">
                    <mxGeometry x="-200" y="950" width="160" height="180" as="geometry" />
                </mxCell>
                <mxCell id="60" value="火山双通道 TTS" style="rounded=1;whiteSpace=wrap;html=1;fillColor=#f8cecc;strokeColor=#b85450;" parent="59" vertex="1">
                    <mxGeometry y="30" width="160" height="25" as="geometry" />
                </mxCell>
                <mxCell id="61" value="腾讯 TTS" style="rounded=1;whiteSpace=wrap;html=1;fillColor=#f8cecc;strokeColor=#b85450;" parent="59" vertex="1">
                    <mxGeometry y="55" width="160" height="25" as="geometry" />
                </mxCell>
                <mxCell id="62" value="Edge TTS" style="rounded=1;whiteSpace=wrap;html=1;fillColor=#f8cecc;strokeColor=#b85450;" parent="59" vertex="1">
                    <mxGeometry y="80" width="160" height="25" as="geometry" />
                </mxCell>
                <mxCell id="63" value="FishSpeech" style="rounded=1;whiteSpace=wrap;html=1;fillColor=#f8cecc;strokeColor=#b85450;" parent="59" vertex="1">
                    <mxGeometry y="105" width="160" height="25" as="geometry" />
                </mxCell>
                <mxCell id="64" value="OpenAI TTS" style="rounded=1;whiteSpace=wrap;html=1;fillColor=#f8cecc;strokeColor=#b85450;" parent="59" vertex="1">
                    <mxGeometry y="130" width="160" height="25" as="geometry" />
                </mxCell>
                <mxCell id="65" value="更多…" style="rounded=1;whiteSpace=wrap;html=1;fillColor=#f8cecc;strokeColor=#b85450;" parent="59" vertex="1">
                    <mxGeometry y="155" width="160" height="25" as="geometry" />
                </mxCell>
                <mxCell id="66" value="" style="endArrow=classic;html=1;exitX=0;exitY=0.75;exitDx=0;exitDy=0;entryX=0.75;entryY=0;entryDx=0;entryDy=0;" parent="1" source="21" target="59" edge="1">
                    <mxGeometry width="50" height="50" relative="1" as="geometry" />
                </mxCell>
                <mxCell id="67" value="音频输入" style="text;html=1;strokeColor=none;fillColor=none;align=center;verticalAlign=middle;whiteSpace=wrap;rounded=0;fontStyle=1;" parent="1" vertex="1">
                    <mxGeometry x="140" y="410" width="60" height="20" as="geometry" />
                </mxCell>
                <mxCell id="68" value="文本处理" style="text;html=1;strokeColor=none;fillColor=none;align=center;verticalAlign=middle;whiteSpace=wrap;rounded=0;fontStyle=1;" parent="1" vertex="1">
                    <mxGeometry x="140" y="460" width="60" height="20" as="geometry" />
                </mxCell>
                <mxCell id="69" value="AI 编排" style="text;html=1;strokeColor=none;fillColor=none;align=center;verticalAlign=middle;whiteSpace=wrap;rounded=0;fontStyle=1;" parent="1" vertex="1">
                    <mxGeometry x="140" y="650" width="60" height="20" as="geometry" />
                </mxCell>
                <mxCell id="70" value="工具调用" style="text;html=1;strokeColor=none;fillColor=none;align=center;verticalAlign=middle;whiteSpace=wrap;rounded=0;fontStyle=1;" parent="1" vertex="1">
                    <mxGeometry x="360" y="650" width="60" height="20" as="geometry" />
                </mxCell>
                <mxCell id="71" value="音频输出" style="text;html=1;strokeColor=none;fillColor=none;align=center;verticalAlign=middle;whiteSpace=wrap;rounded=0;fontStyle=1;" parent="1" vertex="1">
                    <mxGeometry x="570" y="460" width="60" height="20" as="geometry" />
                </mxCell>
            </root>
        </mxGraphModel>
    </diagram>
</mxfile>